# xmcd
#
# Track frame offsets: 
#        150
#        3707
#        26560
#        48735
#        68142
#        87277
#        106457
#        127817
#        153805
#        172977
#        192370
#        211510
#        233832
#        236264
#        254802
#        272777
#        292977
#        309477
#
# Disc length: 4407 seconds
#
# Revision: 0
# Processed by: cddbd v1.5.2PL0 Copyright (c) Steve Scherf et al.
# Submitted via: ExactAudioCopyFreeDBPlugin 1.0
#
DISCID=f1113512
DTITLE=陶喆 - I'm OK 
DYEAR=1999
DGENRE=
TTITLE0=Doxology
TTITLE1=找自己
TTITLE2=小镇姑娘
TTITLE3=夜来香
TTITLE4=普通朋友
TTITLE5=I'm OK 
TTITLE6=不一样
TTITLE7=说走就走
TTITLE8=多谢你
TTITLE9=马戏团
TTITLE10=天天 
TTITLE11=Angeline
TTITLE12=Amen(Vocals featuring Tension)
TTITLE13=是是非非
TTITLE14=沙滩
TTITLE15=爱,很简单
TTITLE16=心恋花(现场收录)
TTITLE17=飞机场的十点三十分
EXTD=
EXTT0=
EXTT1=
EXTT2=
EXTT3=
EXTT4=
EXTT5=
EXTT6=
EXTT7=
EXTT8=
EXTT9=
EXTT10=
EXTT11=
EXTT12=
EXTT13=
EXTT14=
EXTT15=
EXTT16=
EXTT17=
PLAYORDER=
